<?xml version="1.0" encoding="utf-8"?><svg xmlns="http://www.w3.org/2000/svg" xmlns:xlink="http://www.w3.org/1999/xlink"><symbol viewBox="0 0 522.468 522.469" id="code"><path d="M325.762 70.513l-17.706-4.854c-2.279-.76-4.524-.521-6.707.715-2.19 1.237-3.669 3.094-4.429 5.568L190.426 440.53c-.76 2.475-.522 4.809.715 6.995 1.237 2.19 3.09 3.665 5.568 4.425l17.701 4.856c2.284.766 4.521.526 6.71-.712 2.19-1.243 3.666-3.094 4.425-5.564L332.042 81.936c.759-2.474.523-4.808-.716-6.999-1.238-2.19-3.089-3.665-5.564-4.424zm-159.595 71.952c0-2.474-.953-4.665-2.856-6.567l-14.277-14.276c-1.903-1.903-4.093-2.857-6.567-2.857s-4.665.955-6.567 2.857L2.856 254.666C.95 256.569 0 258.759 0 261.233s.953 4.664 2.856 6.566l133.043 133.044c1.902 1.906 4.089 2.854 6.567 2.854s4.665-.951 6.567-2.854l14.277-14.268c1.903-1.902 2.856-4.093 2.856-6.57 0-2.471-.953-4.661-2.856-6.563L51.107 261.233l112.204-112.201c1.906-1.902 2.856-4.093 2.856-6.567zm353.447 112.198L386.567 121.619c-1.902-1.902-4.093-2.857-6.563-2.857-2.478 0-4.661.955-6.57 2.857l-14.271 14.275c-1.902 1.903-2.851 4.09-2.851 6.567s.948 4.665 2.851 6.567l112.206 112.204-112.206 112.21c-1.902 1.902-2.851 4.093-2.851 6.563 0 2.478.948 4.668 2.851 6.57l14.271 14.268c1.909 1.906 4.093 2.854 6.57 2.854 2.471 0 4.661-.951 6.563-2.854L519.614 267.8c1.903-1.902 2.854-4.096 2.854-6.57 0-2.475-.951-4.665-2.854-6.567z"/></symbol><symbol viewBox="0 0 54.953 54.953" id="layers"><path d="M45.297 21.946l9.656-5.517L27.477.825 0 16.429l9.656 5.517L0 27.429l9.656 5.517L0 38.429l27.477 15.698 27.476-15.698-9.656-5.483 9.656-5.517-9.656-5.483zM27.477 3.125l23.435 13.309-23.435 13.39-23.436-13.39L27.477 3.125zM11.675 23.099l15.802 9.028 15.802-9.028 7.633 4.335-23.435 13.39-23.436-13.39 7.634-4.335zm39.237 15.335l-23.435 13.39-23.436-13.39 7.634-4.335 15.802 9.028 15.802-9.028 7.633 4.335z"/></symbol><symbol viewBox="0 0 512.32 512.32" id="marker"><path d="M509.76 95.733l-90.453-89.6c-3.413-3.413-9.387-3.413-12.8 0l-17.92 17.92c-3.413-3.413-8.533-3.413-11.947 0L63.467 338.08c-1.833 1.833-2.672 4.159-2.536 6.448-.005.127-.024.252-.024.379l1.707 15.36c2.56 29.867-7.68 58.88-29.013 80.213-1.707 1.707-2.56 3.413-2.56 5.973 0 2.34.722 3.967 2.148 5.532L2.88 482.293C.32 484-.533 487.413.32 489.973s3.413 5.12 5.973 5.973l35.84 11.947c.853.853 1.707.853 2.56.853 2.56 0 5.12-.853 5.973-2.56l18.347-18.347.427.427c1.707 1.707 3.413 2.56 5.973 2.56 1.707 0 4.267-.853 5.973-2.56L84.8 484c19.627-19.627 44.373-29.867 71.68-29.867h11.638c1.069.563 2.253.853 3.722.853 2.56 0 4.267-1.707 5.973-2.56L490.987 138.4c3.413-3.413 3.413-8.533 0-11.947l18.773-18.773c3.413-3.413 3.413-8.533 0-11.947zm-127.147-53.76l90.878 90.029L171.84 433.653 81.387 343.2 382.613 41.973zM57.493 476.32l-14.507 14.507-17.92-5.973 20.48-20.48 5.973 5.973 5.974 5.973zm17.92-5.973L50.667 445.6c19.627-22.187 29.867-50.347 29.013-79.36l71.68 71.68c-28.16.853-55.467 12.8-75.947 32.427zm404.48-355.84L401.387 36l11.947-11.947 78.507 78.507-11.948 11.947z"/><path d="M153.92 319.307c1.707 1.707 3.413 2.56 5.973 2.56 1.707 0 4.267-.853 5.973-2.56l204.8-204.8c3.413-3.413 3.413-8.533 0-11.947-3.413-3.413-8.533-3.413-11.947 0l-204.8 204.8c-3.412 3.413-3.412 8.533.001 11.947zm41.813 41.813c1.707 1.707 3.413 2.56 5.973 2.56s4.267-.853 5.973-2.56l204.8-204.8c3.413-3.413 3.413-8.533 0-11.947s-8.533-3.413-11.947 0l-204.8 204.8c-3.412 3.414-3.412 8.534.001 11.947z"/></symbol></svg>